{"title":"Jimmy.Zip.(1999).DVDRip.XviD-tNe","uid":6389109,"size":1465823316,"categoryP":"video","categoryS":"movies","magnet":"?xt=urn:btih:82c510a97cebcf3fea2d368f4cd38666ff9bfe4b&amp;dn=Jimmy.Zip.%281999%29.DVDRip.XviD-tNe&amp;tr=udp%3A%2F%2Ftracker.openbittorrent.com%3A80&amp;tr=udp%3A%2F%2Fopen.demonii.com%3A1337&amp;tr=udp%3A%2F%2Ftracker.coppersurfer.tk%3A6969&amp;tr=udp%3A%2F%2Fexodus.desync.com%3A6969","seeders":0,"leechers":2,"uploader":"trialNerror","files":4,"time":1305295143,"description":"An abused runaway with pyromaniac tendencies teams up with a metal sculptor.\nTogether they blow away the art world and a local crime boss.\n\n\nAction | Crime | Drama\n\n\nFormat : AVI\nFormat/Info : Audio Video Interleave\nFile size : 1.37 GiB\nDuration : 1h 52mn\nOverall bit rate : 1 736 Kbps\nWriting application : VirtualDubMod 1.5.10.2 (build 2542/release)\nWriting library : VirtualDubMod build 2542/release\n\nVideo\nID : 0\nFormat : MPEG-4 Visual\nFormat profile : Advanced Simple@L5\nFormat settings, BVOP : Yes\nFormat settings, QPel : Yes\nFormat settings, GMC : No warppoints\nFormat settings, Matrix : Default (H.263)\nMuxing mode : Packed bitstream\nCodec ID : XVID\nCodec ID/Hint : XviD\nDuration : 1h 52mn\nBit rate : 1 598 Kbps\nWidth : 696 pixels\nHeight : 352 pixels\nDisplay aspect ratio : 1.977\nFrame rate : 29.970 fps\nColor space : YUV\nChroma subsampling : 4:2:0\nBit depth : 8 bits\nScan type : Progressive\nBits/(Pixel*Frame) : 0.218\nStream size : 1.26 GiB (92%)\nWriting library : XviD 58\n\nAudio\nID : 1\nFormat : MPEG Audio\nFormat version : Version 1\nFormat profile : Layer 3\nMode : Joint stereo\nMode extension : MS Stereo\nCodec ID : 55\nCodec ID/Hint : MP3\nDuration : 1h 52mn\nBit rate mode : Variable\nBit rate : 124 Kbps\nChannel(s) : 2 channels\nSampling rate : 48.0 KHz\nStream size : 99.9 MiB (7%)\nAlignment : Aligned on interleaves\nInterleave, duration : 24 ms (0.72 video frame)\nInterleave, preload duration : 516 ms ","torrent":{"xt":"urn:btih:82c510a97cebcf3fea2d368f4cd38666ff9bfe4b","amp;dn":"Jimmy.Zip.%281999%29.DVDRip.XviD-tNe","amp;tr":["udp%3A%2F%2Ftracker.openbittorrent.com%3A80","udp%3A%2F%2Fopen.demonii.com%3A1337","udp%3A%2F%2Ftracker.coppersurfer.tk%3A6969","udp%3A%2F%2Fexodus.desync.com%3A6969"],"infoHash":"82c510a97cebcf3fea2d368f4cd38666ff9bfe4b","infoHashBuffer":{"type":"Buffer","data":[130,197,16,169,124,235,207,63,234,45,54,143,76,211,134,102,255,155,254,75]},"announce":[],"urlList":[]}}